# xmcd CD database file
# Copyright (C) 1993-1998 Ti Kan
#
# Track frame offsets:
#  150
#  14712
#  27870
#  44037
#  60832
#  70575
#  83627
#  95115
#  110332
#  123345
#  137170
#  149257
#
# Disc length: 2211 seconds
#
# Revision: 1
# Processed by: cddbd v1.4b41PL1 Copyright (c) Steve Scherf et al.
# Submitted via: CDWizzard Release:4.35
#
DISCID=a408a10c
DTITLE=Brice Henderson - Talk of the Town
DYEAR=1900
DGENRE=
TTITLE0=Welcome Home
TTITLE1=God's Holy Light
TTITLE2=Talk of the Town
TTITLE3=Never Had a Prayer
TTITLE4=Make a Servant of Me
TTITLE5=He Gathers the Lambs
TTITLE6=We Will All Rejoice
TTITLE7=Mysterious Ways
TTITLE8=When You Get on the Rock
TTITLE9=He Saw What I Could Be
TTITLE10=Come Judgement Day
TTITLE11=How Great Thou Art
EXTD=
EXTT0=
EXTT1=
EXTT2=
EXTT3=
EXTT4=
EXTT5=
EXTT6=
EXTT7=
EXTT8=
EXTT9=
EXTT10=
EXTT11=
PLAYORDER=
